<svg version="1.1" id="Layer_1" xmlns="http://www.w3.org/2000/svg" xmlns:xlink="http://www.w3.org/1999/xlink" x="0px" y="0px"
	 width="100%" viewBox="0 0 512 512" enable-background="new 0 0 512 512" xml:space="preserve">
<path fill="#000000" opacity="1.000000" stroke="none" 
	d="
M1.000000,183.000000 
	C1.000000,122.000000 1.000000,61.500000 1.000000,1.000000 
	C171.666672,1.000000 342.333344,1.000000 513.000000,1.000000 
	C513.000000,171.666672 513.000000,342.333344 513.000000,513.000000 
	C342.333344,513.000000 171.666672,513.000000 1.000000,513.000000 
	C1.000000,403.166656 1.000000,293.333344 1.000000,183.000000 
M421.667938,444.944885 
	C438.591797,454.374115 455.515656,463.803345 472.439484,473.232544 
	C472.715668,472.905487 472.991821,472.578430 473.267975,472.251373 
	C455.565735,440.906036 437.863525,409.560699 420.205017,378.292786 
	C469.537292,357.987976 500.135406,322.353668 504.492493,269.394104 
	C509.689453,206.225845 479.609375,162.334076 422.467102,136.177078 
	C449.933533,94.235207 477.617767,51.960770 505.302002,9.686328 
	C504.920593,9.383869 504.539215,9.081410 504.157806,8.778952 
	C461.908966,36.456604 419.660126,64.134254 377.600677,91.687843 
	C356.913452,43.816998 321.667480,13.757147 269.728210,9.515530 
	C205.487823,4.269341 161.196609,34.886066 135.451691,93.658409 
	C104.372986,76.103973 73.029610,58.400051 41.686241,40.696121 
	C41.358032,41.026638 41.029827,41.357155 40.701618,41.687672 
	C58.400997,73.031670 76.100380,104.375664 93.615913,135.394089 
	C39.837917,159.200562 8.362505,198.496674 9.228903,258.748566 
	C10.095860,319.039215 42.729565,357.594055 97.120697,379.744659 
	C86.216805,402.784241 75.410805,425.617004 64.604805,448.449738 
	C65.018867,448.738739 65.432938,449.027740 65.847000,449.316742 
	C88.697304,438.497772 111.547600,427.678802 134.028214,417.034882 
	C161.080063,480.434387 207.851639,512.426697 276.937286,503.485199 
	C326.544250,497.064758 359.588013,466.573914 378.206970,420.221283 
	C383.564148,423.172150 388.910065,426.035706 394.177856,429.036530 
	C403.158417,434.152283 412.089874,439.354248 421.667938,444.944885 
z"/>
<path fill="#DF99FF" opacity="1.000000" stroke="none" 
	d="
M421.354919,444.732452 
	C412.089874,439.354248 403.158417,434.152283 394.177856,429.036530 
	C388.910065,426.035706 383.564148,423.172150 378.206970,420.221283 
	C359.588013,466.573914 326.544250,497.064758 276.937286,503.485199 
	C207.851639,512.426697 161.080063,480.434387 134.028214,417.034882 
	C111.547600,427.678802 88.697304,438.497772 65.847000,449.316742 
	C65.432938,449.027740 65.018867,448.738739 64.604805,448.449738 
	C75.410805,425.617004 86.216805,402.784241 97.120697,379.744659 
	C42.729565,357.594055 10.095860,319.039215 9.228903,258.748566 
	C8.362505,198.496674 39.837917,159.200562 93.615913,135.394089 
	C76.100380,104.375664 58.400997,73.031670 40.701618,41.687672 
	C41.029827,41.357155 41.358032,41.026638 41.686241,40.696121 
	C73.029610,58.400051 104.372986,76.103973 135.451691,93.658409 
	C161.196609,34.886066 205.487823,4.269341 269.728210,9.515530 
	C321.667480,13.757147 356.913452,43.816998 377.600677,91.687843 
	C419.660126,64.134254 461.908966,36.456604 504.157806,8.778952 
	C504.539215,9.081410 504.920593,9.383869 505.302002,9.686328 
	C477.617767,51.960770 449.933533,94.235207 422.467102,136.177078 
	C479.609375,162.334076 509.689453,206.225845 504.492493,269.394104 
	C500.135406,322.353668 469.537292,357.987976 420.205017,378.292786 
	C437.863525,409.560699 455.565735,440.906036 473.267975,472.251373 
	C472.991821,472.578430 472.715668,472.905487 472.439484,473.232544 
	C455.515656,463.803345 438.591797,454.374115 421.354919,444.732452 
z"/>
</svg>